<?xml version="1.0" standalone="no"?>
<!DOCTYPE svg PUBLIC "-//W3C//DTD SVG 20010904//EN"
 "http://www.w3.org/TR/2001/REC-SVG-20010904/DTD/svg10.dtd">
<svg version="1.0" xmlns="http://www.w3.org/2000/svg"
 width="310.000000pt" height="310.000000pt" viewBox="0 0 310.000000 310.000000"
 preserveAspectRatio="xMidYMid meet">
<metadata>
Created by potrace 1.11, written by Peter Selinger 2001-2013
</metadata>
<g transform="translate(0.000000,310.000000) scale(0.100000,-0.100000)"
fill="#000000" stroke="none">
<path d="M1477 2996 c-18 -20 -25 -22 -44 -13 -51 23 -41 -23 12 -54 19 -12
32 -25 29 -30 -3 -5 2 -6 10 -3 12 4 14 -3 13 -35 -1 -29 -5 -40 -14 -37 -7 3
-17 -3 -22 -13 -8 -13 -4 -26 13 -52 24 -35 28 -80 8 -87 -17 -5 -15 -33 4
-60 13 -18 13 -26 3 -38 -7 -8 -11 -38 -10 -72 1 -31 1 -64 1 -72 0 -8 0 -27
0 -43 0 -17 -6 -30 -17 -34 -21 -8 -58 -44 -66 -67 -9 -23 13 -82 24 -64 7 10
9 9 9 -4 0 -9 8 -23 18 -30 24 -18 26 -38 2 -38 -10 0 -27 -8 -37 -19 -10 -10
-34 -28 -53 -40 -19 -11 -31 -21 -26 -21 5 0 -1 -9 -13 -19 -27 -24 -26 -82 2
-112 11 -12 17 -29 14 -40 -3 -10 -2 -21 2 -23 4 -3 6 -35 5 -73 -1 -39 3 -74
9 -82 6 -7 11 -23 12 -35 0 -13 6 -21 18 -21 9 0 17 2 16 5 0 3 4 17 10 33 9
23 8 29 -9 39 -14 9 -16 16 -9 30 5 10 10 46 10 81 0 86 -1 96 -12 102 -16 10
-10 51 10 69 23 21 78 38 116 36 101 -5 119 -14 108 -54 -4 -12 -7 -69 -8
-128 0 -59 -4 -110 -6 -113 -3 -3 -26 -1 -51 3 -39 8 -47 6 -57 -11 -10 -16
-10 -21 1 -28 7 -5 19 -9 26 -9 6 0 12 -9 12 -19 0 -11 -6 -22 -12 -25 -7 -3
0 -4 15 -1 17 3 36 -1 50 -10 11 -8 42 -18 68 -21 l47 -6 0 -50 c0 -32 6 -55
17 -68 22 -24 13 -55 -12 -42 -75 40 -278 132 -307 141 -54 14 -129 -15 -187
-73 -51 -51 -80 -60 -78 -23 1 12 -1 29 -5 38 -5 10 -1 19 8 22 27 11 18 45
-15 62 -28 15 -32 15 -48 1 -10 -9 -21 -16 -26 -16 -13 0 -62 -59 -80 -97 -9
-19 -19 -52 -21 -72 -2 -20 -6 -51 -8 -70 -2 -24 -10 -37 -25 -42 -11 -5 -21
-13 -21 -18 0 -6 -20 -29 -45 -52 -25 -23 -43 -45 -40 -49 2 -4 -26 -34 -63
-67 -37 -33 -82 -73 -99 -89 -18 -16 -55 -47 -83 -69 -50 -40 -60 -58 -39 -71
7 -4 31 13 58 42 48 50 109 105 159 143 71 54 123 91 192 138 41 28 100 74
130 103 30 29 80 69 110 90 30 22 78 57 105 79 28 23 56 41 63 41 12 0 14 -4
15 -37 1 -10 5 -20 9 -23 12 -9 -6 -26 -55 -49 -26 -13 -45 -27 -41 -32 3 -5
0 -9 -5 -9 -6 0 -19 -7 -28 -15 -18 -15 -120 -95 -182 -143 -19 -15 -45 -37
-58 -50 -13 -12 -27 -22 -30 -22 -3 0 -14 -10 -24 -22 -11 -11 -19 -17 -19
-13 0 4 -9 -2 -20 -15 -11 -13 -20 -20 -20 -16 0 4 -7 0 -16 -8 -8 -9 -55 -46
-105 -83 -49 -36 -89 -70 -89 -74 0 -4 -15 -11 -32 -14 -18 -4 -38 -12 -45
-17 -6 -5 -17 -8 -25 -7 -27 3 -38 -1 -38 -16 0 -8 7 -15 17 -15 9 0 40 -12
70 -26 55 -27 67 -50 38 -74 -22 -18 -19 -39 5 -33 11 3 18 9 15 13 -3 5 4 11
15 15 11 3 20 11 20 17 0 12 70 78 82 78 5 0 17 8 27 17 32 29 50 43 58 45 5
2 18 15 31 30 13 15 26 27 30 25 4 -1 17 7 28 18 12 11 33 29 48 40 14 11 36
29 49 40 13 11 47 36 77 55 29 19 67 46 83 61 37 34 53 28 62 -19 3 -20 12
-46 18 -57 9 -15 12 -132 11 -433 l-1 -413 51 3 51 3 -4 325 c-3 310 -4 490
-2 518 1 9 8 11 21 7 11 -3 24 -4 29 0 18 11 0 34 -35 45 -33 11 -34 13 -27
48 4 21 7 49 6 65 -4 102 -4 120 6 130 7 7 17 3 33 -12 13 -12 60 -39 104 -59
45 -21 93 -46 107 -55 15 -9 33 -17 41 -17 8 0 27 -11 43 -23 15 -13 42 -27
58 -30 44 -9 105 -36 105 -47 0 -6 9 -10 21 -10 12 0 42 -11 68 -24 25 -13 57
-29 71 -35 14 -6 87 -37 163 -71 76 -33 142 -60 147 -60 6 0 10 -7 10 -15 0
-21 -29 -65 -43 -65 -6 0 -157 66 -336 146 -394 176 -389 174 -474 214 -73 34
-108 38 -85 9 7 -9 166 -84 354 -167 187 -83 371 -164 407 -181 36 -17 81 -37
100 -44 30 -13 34 -19 36 -58 3 -82 4 -84 36 -89 23 -4 30 -10 31 -30 1 -14 5
-59 9 -100 3 -41 7 -117 7 -168 0 -89 13 -152 30 -152 10 0 10 15 -2 65 -5 22
-10 89 -11 150 -1 60 -6 122 -12 138 -6 20 -6 35 2 50 15 30 10 67 -11 78 -10
5 -18 21 -18 35 0 23 3 25 30 19 37 -8 42 15 8 38 -21 13 -22 17 -10 37 12 20
12 22 -3 16 -9 -3 -19 -6 -21 -6 -2 0 -4 -9 -4 -20 0 -21 -15 -27 -25 -9 -4 6
-13 8 -21 5 -14 -6 -20 10 -6 16 4 2 18 20 31 41 24 40 48 45 43 10 -6 -46 49
-34 114 24 42 38 51 77 22 97 -12 9 -30 16 -39 16 -9 0 -20 7 -23 16 -3 8 -10
12 -16 9 -10 -6 -69 22 -82 40 -5 6 -8 6 -8 1 0 -20 -68 57 -73 83 -5 25 -82
111 -99 111 -5 0 -8 6 -8 14 0 8 -8 17 -18 20 -10 3 -45 31 -77 61 -33 30 -66
55 -74 55 -8 0 -11 7 -8 20 9 35 -67 124 -139 160 -47 24 -114 27 -114 5 0 -8
6 -16 13 -17 6 0 17 -2 22 -3 37 -7 135 -55 135 -65 0 -17 -29 -17 -68 1 -32
15 -47 17 -62 9 -20 -11 -37 -38 -35 -55 11 -78 16 -84 81 -115 35 -16 71 -30
80 -30 23 0 41 23 38 48 -7 43 41 22 57 -25 9 -29 9 -37 -2 -44 -8 -5 -20 -7
-26 -4 -7 2 -13 -3 -13 -13 0 -18 55 -46 72 -36 4 3 6 18 3 34 -4 22 0 32 14
39 22 12 37 2 71 -48 13 -18 35 -46 49 -62 53 -57 64 -79 41 -79 -5 0 -122 55
-260 122 -207 101 -248 125 -235 134 14 11 14 13 -1 28 -11 12 -14 24 -8 44 4
15 6 32 5 37 -2 6 -5 26 -6 45 -2 19 -4 38 -4 43 -1 4 -9 7 -19 7 -25 0 -45
38 -49 95 -2 28 -5 66 -7 85 -3 34 34 125 58 142 8 5 7 8 0 8 -7 0 -15 11 -18
25 -9 36 -35 63 -81 87 -26 14 -40 17 -43 9 -2 -6 -10 -11 -18 -11 -23 0 -10
36 23 64 17 14 34 37 37 51 4 14 11 25 16 25 35 0 -19 88 -57 93 -32 5 -37 12
-39 65 -3 94 -16 167 -31 179 -12 10 -11 12 9 15 18 2 23 9 23 33 0 17 3 35 7
41 4 6 -1 22 -12 34 -11 13 -20 26 -21 29 -5 58 -7 141 -3 141 3 0 19 -10 36
-21 18 -13 33 -18 39 -12 11 11 -17 53 -36 53 -11 0 -13 8 -8 30 4 23 2 30
-11 30 -9 0 -15 3 -15 8 8 46 -20 56 -54 18z m-9 -1461 c62 -32 301 -145 307
-145 3 0 60 -27 127 -59 368 -177 448 -216 505 -242 50 -24 60 -32 56 -49 -3
-11 -9 -20 -14 -20 -8 0 -87 36 -274 125 -189 90 -260 123 -375 175 -63 29
-164 76 -225 105 -60 28 -126 57 -146 64 -36 11 -50 32 -42 59 7 18 28 15 81
-13z m-168 -146 c0 -17 -141 -145 -216 -195 -22 -15 -47 -35 -56 -45 -10 -10
-39 -32 -65 -50 -27 -18 -62 -44 -80 -58 -157 -129 -173 -140 -189 -134 -8 3
-14 8 -14 12 0 10 48 51 59 51 5 0 11 4 13 8 2 4 23 23 48 42 25 19 52 42 60
50 8 8 33 28 56 43 22 15 49 35 60 45 11 9 49 39 84 67 36 27 76 59 90 72 96
86 150 119 150 92z m56 -99 c-2 -46 -21 -51 -21 -5 0 35 3 45 14 45 4 0 7 -18
7 -40z m-114 -32 c-6 -6 -15 -8 -19 -4 -4 4 -1 11 7 16 19 12 27 3 12 -12z
m1287 -231 c8 -10 7 -14 -4 -14 -8 0 -15 6 -15 14 0 7 2 13 4 13 2 0 9 -6 15
-13z"/>
<path d="M1555 1945 c2 -54 1 -56 -22 -50 -22 5 -23 3 -23 -41 0 -32 4 -44 13
-41 6 2 13 13 13 25 3 41 4 44 19 38 18 -7 28 25 23 79 -5 63 -25 54 -23 -10z"/>
<path d="M1467 1966 c-6 -15 1 -26 15 -26 11 0 10 27 -1 34 -5 3 -11 0 -14 -8z"/>
<path d="M1250 1160 c-9 -6 -10 -10 -3 -10 6 0 15 5 18 10 8 12 4 12 -15 0z"/>
<path d="M1269 1078 c-1 -13 -3 -34 -4 -48 -5 -51 -6 -183 -5 -457 1 -275 2
-283 21 -283 19 0 20 8 19 405 -1 344 -4 405 -16 405 -8 0 -15 -10 -15 -22z"/>
<path d="M1632 1078 c6 -40 208 -113 208 -75 0 10 -181 97 -204 97 -4 0 -6
-10 -4 -22z"/>
<path d="M1174 1069 c-10 -12 -43 -37 -72 -56 -62 -42 -59 -62 8 -45 37 9 44
8 58 -10 41 -49 48 -42 48 48 0 90 -8 101 -42 63z"/>
<path d="M1460 877 c0 -97 3 -178 8 -180 8 -6 6 342 -2 351 -3 3 -6 -74 -6
-171z"/>
<path d="M1649 983 c-1 -10 -2 -30 -3 -45 -4 -35 18 -27 35 14 10 25 10 31 -2
39 -21 13 -29 11 -30 -8z"/>
<path d="M1776 959 c-33 -9 -76 -46 -76 -66 0 -8 -4 -12 -8 -9 -5 3 -9 -1 -9
-8 0 -8 6 -12 14 -9 7 3 13 9 13 14 0 29 127 56 176 38 14 -5 29 -3 40 5 17
13 16 14 -7 26 -28 16 -102 20 -143 9z"/>
<path d="M1018 912 c-19 -12 -24 -22 -18 -31 7 -12 16 -12 54 -1 40 11 49 10
72 -5 33 -21 27 -27 -34 -29 -37 -1 -56 -8 -82 -29 -53 -45 -93 -107 -70 -107
6 0 10 5 10 10 0 6 7 10 15 10 8 0 15 4 15 8 0 4 24 22 53 40 68 41 119 43
135 7 18 -39 15 -44 -22 -33 -32 10 -40 8 -89 -22 -30 -18 -70 -54 -89 -79
-33 -44 -74 -141 -60 -141 11 0 38 20 28 20 -5 0 1 9 14 20 29 25 50 26 57 1
9 -34 32 -32 89 7 39 26 54 42 50 55 -3 12 3 19 20 23 38 10 48 28 34 70 -9
26 -9 39 -1 47 30 30 -1 127 -52 162 -29 20 -96 19 -129 -3z"/>
<path d="M1965 913 c-3 -10 -2 -19 4 -21 25 -8 101 -66 134 -101 46 -50 99
-146 128 -231 27 -83 35 -90 38 -39 5 85 -127 299 -224 365 -63 42 -72 45 -80
27z"/>
<path d="M2076 902 c-9 -14 8 -29 79 -69 52 -29 69 -45 68 -59 -3 -27 16 -94
26 -94 15 0 20 39 9 76 -5 20 -7 38 -4 41 9 10 -15 44 -37 53 -12 4 -48 20
-79 34 -32 14 -59 22 -62 18z"/>
<path d="M1791 876 c-33 -12 -87 -63 -77 -74 3 -2 28 5 55 16 47 21 51 21 102
6 131 -38 227 -136 289 -294 12 -30 26 -57 31 -61 6 -3 6 -15 0 -30 -8 -23 -9
-43 -3 -127 2 -18 7 -23 25 -20 12 2 21 8 21 13 -1 6 -5 51 -8 100 -8 104 -25
164 -73 256 -53 103 -132 173 -239 210 -61 22 -76 22 -123 5z"/>
<path d="M921 826 c-12 -18 -21 -38 -21 -45 0 -6 -5 -11 -11 -11 -5 0 -8 -4
-4 -9 3 -5 -1 -15 -8 -23 -53 -54 -112 -218 -116 -321 -1 -9 -4 -16 -8 -16
-22 4 -32 -3 -39 -23 -5 -13 -7 -26 -6 -30 1 -5 -9 -8 -23 -8 -14 0 -25 -3
-26 -7 0 -5 -2 -16 -4 -25 -3 -16 5 -18 67 -18 49 0 69 3 66 12 -2 6 -10 14
-18 16 -7 3 -10 0 -6 -7 4 -6 0 -11 -9 -11 -13 0 -16 8 -13 38 3 29 8 37 23
37 21 0 21 0 55 145 12 52 29 111 38 130 8 19 16 37 17 40 13 49 33 84 66 114
22 19 38 40 34 46 -12 19 -33 10 -54 -24z"/>
<path d="M818 799 c-40 -34 -46 -44 -38 -60 6 -10 9 -23 8 -30 -2 -6 2 -13 9
-16 6 -2 16 11 22 30 6 18 25 47 41 62 31 30 39 55 18 55 -7 -1 -34 -19 -60
-41z"/>
<path d="M1794 788 c-37 -9 -94 -70 -94 -99 0 -11 10 -24 24 -30 13 -6 27 -20
29 -30 3 -10 13 -22 24 -25 10 -3 65 -24 123 -45 58 -22 119 -45 135 -51 44
-16 51 -26 35 -42 -13 -13 -20 -13 -50 1 -19 9 -41 15 -48 14 -7 -1 -20 5 -29
14 -8 9 -21 14 -29 11 -7 -3 -18 2 -24 10 -7 8 -21 14 -31 14 -10 0 -20 4 -23
9 -3 4 -19 11 -35 14 -17 4 -47 22 -68 42 -20 19 -41 35 -45 35 -8 0 -12 -18
-8 -35 2 -5 4 -73 6 -150 1 -77 2 -143 3 -147 1 -5 24 -8 51 -8 44 0 52 3 62
25 6 14 16 25 21 25 6 0 8 3 5 6 -8 8 40 54 57 54 16 0 38 -34 28 -43 -3 -3 5
-4 18 -2 13 2 31 0 39 -5 13 -8 12 -11 -5 -24 -11 -9 -33 -20 -50 -25 -23 -7
-7 -9 64 -8 104 2 101 0 105 76 1 30 5 36 33 43 42 11 48 23 24 45 -11 10 -22
32 -26 48 -21 93 -44 133 -112 202 -67 67 -147 98 -209 81z m127 -79 c40 -28
111 -117 104 -129 -9 -15 -53 11 -100 60 -22 23 -55 50 -72 61 -18 12 -33 25
-33 31 0 15 70 0 101 -23z m-69 -267 c14 -14 -8 -29 -49 -34 -49 -7 -75 11
-53 37 12 15 86 13 102 -3z"/>
<path d="M1656 763 c-6 -14 -5 -15 5 -6 7 7 10 15 7 18 -3 3 -9 -2 -12 -12z"/>
<path d="M657 684 c-3 -4 -2 -15 4 -26 8 -15 13 -17 25 -7 11 9 12 15 3 25
-12 15 -22 17 -32 8z"/>
<path d="M1461 596 c-1 -44 1 -77 4 -74 9 8 12 114 4 134 -4 11 -8 -14 -8 -60z"/>
<path d="M1180 606 c-8 -6 -24 -29 -35 -51 -15 -30 -33 -46 -78 -68 -32 -16
-76 -31 -98 -34 -44 -6 -50 -24 -17 -47 19 -14 20 -18 9 -39 -7 -13 -11 -35
-9 -48 3 -24 4 -24 141 -27 155 -3 149 -7 123 78 -8 28 -12 83 -11 143 1 53 0
99 -4 101 -3 2 -13 -1 -21 -8z"/>
<path d="M2261 470 c-2 -3 -5 -18 -7 -35 -4 -23 -2 -27 6 -19 7 7 10 22 7 35
-2 13 -5 22 -6 19z"/>
<path d="M1467 443 c-10 -9 -9 -51 1 -57 4 -2 7 11 7 30 0 19 0 34 -1 34 0 0
-4 -3 -7 -7z"/>
<path d="M828 414 c-11 -12 -14 -24 -8 -43 4 -14 6 -38 4 -54 -2 -24 1 -27 26
-27 15 0 30 7 34 15 3 8 1 15 -4 15 -18 0 -10 32 9 37 32 8 32 31 2 53 -35 24
-42 25 -63 4z"/>
<path d="M2260 342 c0 -29 5 -52 10 -52 11 0 13 11 10 55 -3 54 -20 52 -20 -3z"/>
<path d="M2401 314 c0 -11 3 -14 6 -6 3 7 2 16 -1 19 -3 4 -6 -2 -5 -13z"/>
</g>
</svg>
