<svg xmlns="http://www.w3.org/2000/svg"><symbol viewBox="0 0 14.96 8.92" id="chevron-down" xmlns="http://www.w3.org/2000/svg"><path d="M15 1.49L7.53 8.93v-.05l-.1.05L0 1.49 1.5 0l6 6 6-6z"/></symbol><symbol viewBox="0 0 14.96 8.92" id="chevron-up" xmlns="http://www.w3.org/2000/svg"><path d="M15 7.42L7.53 0h-.05L0 7.42l1.5 1.51 6-6 6 6z"/></symbol><symbol viewBox="0 0 15 15" id="cross" xmlns="http://www.w3.org/2000/svg"><path d="M14.577 13.583l-1.415 1.412L7.5 9.345l-5.662 5.65-1.415-1.412 5.661-5.65L.423 2.284 1.838.871 7.5 6.521l5.662-5.65 1.415 1.413-5.662 5.649 5.662 5.65z"/></symbol><symbol viewBox="0 0 512 512" id="delivery-truck" xmlns="http://www.w3.org/2000/svg"><path d="M506.922 249.331l-29.541-17.153-16.877-72.109c-4.493-19.193-21.397-32.597-41.107-32.597h-84.891v-13.467c0-5.633-4.567-10.199-10.199-10.199H10.199C4.567 103.806 0 108.372 0 114.005v243.111c0 5.633 4.567 10.199 10.199 10.199h32.779c4.74 23.293 25.38 40.877 50.051 40.877s45.312-17.584 50.052-40.877h206.476v.001c4.74 23.293 25.38 40.877 50.051 40.877 24.671 0 45.312-17.584 50.052-40.877h52.142c5.632 0 10.199-4.566 10.199-10.199v-98.966a10.203 10.203 0 0 0-5.079-8.82zM93.029 387.796c-16.915 0-30.677-13.763-30.677-30.678s13.762-30.678 30.677-30.678c16.916 0 30.678 13.762 30.678 30.678s-13.762 30.678-30.678 30.678zm221.08-77.452h-91.994c-5.632 0-10.199 4.566-10.199 10.199s4.567 10.199 10.199 10.199h91.994v16.176H143.081c-4.74-23.293-25.381-40.877-50.052-40.877s-45.311 17.583-50.051 40.877h-22.58v-52.75h293.711v16.176zm0-172.672V273.77H20.398V124.205h293.711v13.467zm79.562 10.2h25.728c10.187-.001 18.924 6.927 21.244 16.846l14.949 63.872h-61.92v-80.718zm5.937 239.924c-16.228 0-29.546-12.669-30.602-28.635a10.258 10.258 0 0 0 0-4.086c1.056-15.966 14.374-28.635 30.602-28.635 16.916 0 30.678 13.762 30.678 30.678s-13.762 30.678-30.678 30.678zm91.994-89.284h-19.403v-10.797h19.403v10.797zm0-31.195H462c-5.632 0-10.199 4.566-10.199 10.199v31.195c0 5.633 4.567 10.199 10.199 10.199h29.602v28.008H449.66c-4.74-23.293-25.381-40.877-50.052-40.877s-45.311 17.583-50.051 40.877h-15.05V147.871h38.766v90.918c0 5.633 4.567 10.199 10.199 10.199h82.235l25.894 15.037v3.292z"/><path d="M187.693 310.344h-8.606c-5.632 0-10.199 4.566-10.199 10.199s4.566 10.199 10.199 10.199h8.606c5.632 0 10.199-4.566 10.199-10.199s-4.567-10.199-10.199-10.199z"/></symbol><symbol viewBox="2.2 1 25.4 26" id="exit" xmlns="http://www.w3.org/2000/svg"><path d="M21.4 22.3c-.1 0-.2 0-.3-.1-.3-.2-.3-.6-.1-.8l5.3-7.4L21 6.6c-.3-.2-.2-.6 0-.8.3-.2.6-.1.8.1l5.6 7.7c.1.2.1.5 0 .7L21.9 22c-.2.2-.3.3-.5.3z"/><path d="M27 14.6H12.5c-.3 0-.6-.3-.6-.6s.3-.6.6-.6H27c.3 0 .6.3.6.6s-.3.6-.6.6zM2.8 27c-.3 0-.6-.3-.6-.6V1.6c0-.3.2-.6.6-.6.3 0 .6.3.6.6v24.8c-.1.3-.3.6-.6.6z"/><path d="M18.4 27H2.8c-.3 0-.6-.3-.6-.6s.3-.6.6-.6h15.6c.3 0 .6.3.6.6-.1.3-.3.6-.6.6zm0-24.8H2.8c-.3 0-.6-.3-.6-.6s.2-.6.6-.6h15.6c.3 0 .6.3.6.6-.1.3-.3.6-.6.6z"/></symbol><symbol viewBox="0 0 470.513 470.513" id="facebook" xmlns="http://www.w3.org/2000/svg"><path d="M271.521 154.17v-40.541c0-6.086.28-10.8.849-14.13.567-3.335 1.857-6.615 3.859-9.853 1.999-3.236 5.236-5.47 9.706-6.708 4.476-1.24 10.424-1.858 17.85-1.858h40.539V0h-64.809c-37.5 0-64.433 8.897-80.803 26.691-16.368 17.798-24.551 44.014-24.551 78.658v48.82h-48.542v81.086h48.539v235.256h97.362V235.256h64.805l8.566-81.086h-73.37z"/></symbol><symbol viewBox="0 0 430.117 430.117" id="linkedin" xmlns="http://www.w3.org/2000/svg"><path d="M430.117 261.543V420.56h-92.188V272.193c0-37.271-13.334-62.707-46.703-62.707-25.473 0-40.632 17.142-47.301 33.724-2.432 5.928-3.058 14.179-3.058 22.477V420.56h-92.219s1.242-251.285 0-277.32h92.21v39.309c-.187.294-.43.611-.606.896h.606v-.896c12.251-18.869 34.13-45.824 83.102-45.824 60.673-.001 106.157 39.636 106.157 124.818zM52.183 9.558C20.635 9.558 0 30.251 0 57.463c0 26.619 20.038 47.94 50.959 47.94h.616c32.159 0 52.159-21.317 52.159-47.94-.606-27.212-20-47.905-51.551-47.905zM5.477 420.56h92.184V143.24H5.477v277.32z"/></symbol><symbol viewBox="0 0 20 20" id="navicon" xmlns="http://www.w3.org/2000/svg"><path d="M0 11V9h20v2H0zm0-9V0h20v2H0zm20 18H0v-2h20v2z"/></symbol><symbol viewBox="0 0 12.2 37.5" id="page-up" xmlns="http://www.w3.org/2000/svg"><path d="M0 9.1L6.1 0l6.1 9.1m-7.1 9.7h2V9.1h-2v9.7zm0 11.7h2v-8.2h-2v8.2zm0 7h2V34h-2v3.5z"/></symbol><symbol viewBox="0 0 29.7 29.7" id="phone" xmlns="http://www.w3.org/2000/svg"><path d="M1.4 24.2c0 1.2 1.1 2.3 2.1 3.2l.5.5c.9.9 3.3.8 6-.3 3.4-1.3 7.2-3.8 10.5-7.2s5.9-7.1 7.2-10.5c1-2.7 1.1-5.1.3-6l-.5-.5c-1-1-2.1-2.2-3.3-2.1-.8 0-1.7.6-2.6 1.8-2.8 3.4-1.8 4.4-.2 6l.3.3c.7.7.6 2-.5 3.7-.7 1.2-2 2.6-3.7 4.3-4.2 4.2-6.7 5.4-8 4.2l-.3-.3c-1.6-1.6-2.5-2.6-6 .2-1.2.9-1.8 1.8-1.8 2.7 0-.1 0-.1 0 0z"/></symbol><symbol viewBox="0 0 18 18" id="plus" xmlns="http://www.w3.org/2000/svg"><path d="M18 10h-8v8H8v-8H0V8h8V0h2v8h8v2z"/></symbol><symbol viewBox="0 0 29.7 29.7" id="search" xmlns="http://www.w3.org/2000/svg"><path d="M14.2 3.4C17.6 0 23 0 26.4 3.4s3.4 8.8 0 12.1-8.8 3.4-12.1 0-3.4-8.8-.1-12.1zM.9 28.7l13.3-13.2"/></symbol><symbol viewBox="0 0 11 17" id="slash" xmlns="http://www.w3.org/2000/svg"><path d="M.129 16.014L9.137.446l1.734.999-9.008 15.568-1.734-.999z"/></symbol><symbol viewBox="0 0 64 64" id="youtube" xmlns="http://www.w3.org/2000/svg"><path d="M37.635 41.44c-.542 0-1.088.257-1.635.79v10.999c.547.544 1.093.806 1.635.806.941 0 1.423-.806 1.423-2.434v-7.698c.001-1.632-.482-2.463-1.423-2.463zm11.966 0c-1.093 0-1.642.831-1.642 2.502v1.671h3.274v-1.671c.001-1.671-.546-2.502-1.632-2.502z"/><path d="M56.396 29.049c-2.055-2.139-4.357-2.148-5.414-2.271-7.556-.54-18.889-.54-18.889-.54h-.025s-11.333 0-18.896.54c-1.054.123-3.352.133-5.409 2.271-1.618 1.632-2.147 5.327-2.147 5.327s-.536 4.343-.536 8.685v4.073c0 4.341.536 8.686.536 8.686s.529 3.695 2.147 5.321c2.057 2.139 4.753 2.072 5.952 2.295 4.324.413 18.365.538 18.365.538s11.347-.016 18.903-.562c1.057-.121 3.359-.133 5.414-2.271 1.619-1.626 2.147-5.321 2.147-5.321s.536-4.345.536-8.686v-4.073c0-4.342-.536-8.685-.536-8.685s-.529-3.695-2.148-5.327zM16.979 56.755h-3.642V35.953H9.486v-3.406H20.9v3.406h-3.92v20.802zm12.912 0h-3.278v-1.969c-1.299 1.489-2.54 2.221-3.742 2.221-1.054 0-1.781-.432-2.112-1.346-.178-.546-.286-1.409-.286-2.683V38.717h3.275v13.28c0 .765 0 1.164.024 1.27.083.507.336.769.771.769.658 0 1.341-.507 2.069-1.533V38.717h3.278v18.038zm12.44-5.409c0 1.663-.11 2.866-.331 3.631-.438 1.344-1.313 2.03-2.613 2.03-1.168 0-2.294-.647-3.387-1.999v1.747h-3.277V32.547H36v7.905c1.056-1.299 2.179-1.956 3.387-1.956 1.299 0 2.174.688 2.613 2.036.221.729.331 1.918.331 3.628v7.186zM54.51 48.33h-6.55v3.199c0 1.671.549 2.506 1.673 2.506.806 0 1.275-.44 1.463-1.311.029-.178.073-.908.073-2.219h3.341v.479c0 1.051-.043 1.776-.071 2.106a4.606 4.606 0 0 1-.766 1.955c-.906 1.312-2.25 1.96-3.963 1.96-1.711 0-3.014-.618-3.96-1.853-.696-.902-1.051-2.326-1.051-4.241v-6.319c0-1.927.318-3.333 1.012-4.249.946-1.234 2.249-1.849 3.922-1.849 1.643 0 2.947.614 3.863 1.849.685.916 1.015 2.322 1.015 4.249v3.738zM23.436 24.434v-9.908L27.848-.026h-3.71l-2.503 9.605L19.03-.026h-3.863c.777 2.268 1.581 4.544 2.356 6.816 1.174 3.411 1.91 5.982 2.244 7.735v9.908h3.669zm8.611.251c1.656 0 2.942-.624 3.858-1.864.692-.91 1.029-2.346 1.029-4.287v-6.387c0-1.945-.337-3.367-1.029-4.289-.917-1.25-2.202-1.87-3.858-1.87-1.654 0-2.943.62-3.854 1.87-.707.922-1.034 2.344-1.034 4.289v6.387c0 1.941.327 3.377 1.034 4.287.911 1.24 2.2 1.864 3.854 1.864zm-1.581-13.199c0-1.686.514-2.529 1.581-2.529 1.062 0 1.573.844 1.573 2.529v7.669c0 1.687-.511 2.53-1.573 2.53-1.067 0-1.581-.844-1.581-2.53v-7.669zm18.522 12.948V6.203H45.68v13.935c-.733 1.034-1.427 1.548-2.088 1.548-.445 0-.708-.265-.777-.773-.042-.109-.042-.51-.042-1.285V6.203h-3.299v14.418c0 1.289.108 2.161.293 2.711.332.92 1.068 1.353 2.133 1.353 1.204 0 2.46-.732 3.781-2.24v1.989h3.307z"/></symbol></svg>